<?xml version="1.0" standalone="no"?>
<!DOCTYPE svg PUBLIC "-//W3C//DTD SVG 20010904//EN"
 "http://www.w3.org/TR/2001/REC-SVG-20010904/DTD/svg10.dtd">
<svg version="1.0" xmlns="http://www.w3.org/2000/svg"
 width="1654.000000pt" height="2339.000000pt" viewBox="0 0 1654.000000 2339.000000"
 preserveAspectRatio="xMidYMid meet">

<g transform="translate(0.000000,2339.000000) scale(0.100000,-0.100000)"
fill="#000000" stroke="none">
<path d="M5185 21053 c-27 -2 -52 -8 -55 -12 -3 -4 -38 -13 -77 -20 -40 -7
-73 -17 -73 -22 0 -5 -6 -9 -14 -9 -22 0 -116 -32 -116 -40 0 -4 -18 -13 -40
-20 -22 -7 -40 -16 -40 -20 0 -4 -20 -15 -45 -26 -25 -10 -45 -22 -45 -26 0
-4 -15 -15 -32 -24 -18 -9 -45 -30 -61 -45 -15 -16 -31 -29 -36 -29 -4 0 -23
-16 -42 -36 -19 -19 -55 -57 -81 -82 -27 -26 -48 -50 -48 -54 0 -4 -10 -18
-22 -31 -13 -13 -32 -36 -43 -51 -11 -14 -26 -33 -33 -41 -7 -8 -19 -30 -27
-50 -9 -19 -19 -35 -24 -35 -5 0 -17 -22 -26 -50 -9 -27 -20 -50 -24 -50 -4 0
-13 -17 -20 -37 -8 -21 -17 -40 -20 -43 -9 -6 -41 -107 -41 -126 0 -8 -4 -14
-8 -14 -9 0 -32 -103 -32 -146 0 -34 16 -54 42 -54 10 0 18 -4 18 -10 0 -6 53
-10 140 -10 77 0 140 3 140 8 0 4 35 13 77 20 42 6 79 16 82 21 3 4 32 16 64
25 31 9 57 21 57 26 0 6 9 10 19 10 11 0 22 4 25 9 3 5 17 12 32 15 14 4 35
16 47 26 11 11 27 20 34 20 7 0 13 4 13 9 0 5 8 11 18 15 26 8 55 29 70 49 7
9 17 17 23 17 5 0 26 18 48 40 21 22 43 40 48 40 8 0 39 32 121 129 20 24 44
51 53 61 9 9 25 31 35 49 10 17 21 31 25 31 4 0 12 14 19 30 7 17 15 30 19 30
4 0 15 20 25 45 11 25 22 45 26 45 5 0 16 27 26 60 10 33 21 60 25 60 4 0 13
26 20 58 7 31 17 60 22 63 4 3 11 41 14 83 5 71 4 78 -16 98 -20 18 -37 21
-129 23 -59 2 -129 1 -157 -2z"/>
<path d="M11107 21053 c-57 -7 -77 -32 -77 -98 0 -30 4 -55 8 -55 4 0 14 -34
21 -75 7 -41 16 -75 21 -75 5 0 16 -25 25 -55 8 -30 19 -55 24 -55 4 0 14 -18
21 -40 7 -22 16 -40 19 -40 3 0 15 -18 25 -40 11 -22 22 -40 26 -40 4 0 12
-12 19 -27 7 -16 19 -35 27 -43 44 -47 84 -96 84 -102 0 -9 139 -148 148 -148
4 0 25 -16 47 -35 64 -56 69 -60 98 -74 15 -8 27 -18 27 -21 0 -4 15 -14 33
-21 17 -7 37 -18 42 -24 6 -7 26 -18 45 -25 19 -8 37 -16 40 -20 3 -3 30 -14
60 -24 30 -11 57 -23 60 -27 3 -5 39 -14 80 -21 41 -7 78 -16 81 -21 10 -14
282 -12 287 2 2 6 11 11 20 11 32 1 52 26 52 64 0 20 -4 36 -8 36 -5 0 -14 29
-21 65 -7 36 -16 65 -20 65 -4 0 -15 32 -26 70 -11 39 -22 70 -26 70 -4 0 -15
23 -25 50 -10 28 -22 50 -26 50 -4 0 -8 6 -8 13 0 7 -8 22 -18 33 -10 10 -26
36 -35 57 -10 20 -22 37 -27 37 -6 0 -10 6 -10 14 0 8 -8 21 -18 28 -11 7 -21
18 -23 24 -13 36 -191 224 -213 224 -6 0 -17 9 -24 20 -7 11 -18 20 -26 20 -8
0 -16 7 -20 15 -3 8 -17 20 -31 25 -14 5 -25 13 -25 18 0 4 -20 16 -45 27 -25
11 -45 23 -45 26 0 3 -18 12 -40 19 -22 7 -40 17 -40 21 0 4 -27 16 -60 25
-33 9 -60 20 -60 24 0 3 -37 12 -82 20 -46 7 -85 17 -88 21 -6 9 -218 19 -273
12z"/>
<path d="M3488 20878 c-14 -13 -33 -28 -43 -34 -10 -6 -23 -19 -29 -29 -6 -11
-28 -35 -48 -55 -21 -20 -38 -41 -38 -48 0 -6 -6 -15 -13 -19 -7 -4 -21 -25
-31 -45 -9 -21 -21 -38 -25 -38 -5 0 -14 -13 -21 -30 -7 -16 -16 -30 -20 -30
-4 0 -15 -25 -25 -55 -11 -30 -22 -55 -26 -55 -3 0 -12 -21 -20 -47 -7 -27
-18 -53 -25 -60 -6 -7 -17 -43 -24 -80 -7 -37 -17 -70 -21 -74 -13 -8 -39
-250 -39 -359 0 -109 26 -342 40 -350 5 -3 16 -36 26 -73 9 -37 20 -67 24 -67
5 0 14 -16 20 -35 6 -19 15 -35 19 -35 4 0 12 -15 19 -34 12 -32 19 -42 78
-113 38 -45 74 -44 117 3 18 19 42 47 55 60 12 14 22 29 22 34 0 5 8 15 18 22
10 7 26 30 35 51 10 20 22 37 28 37 5 0 16 18 25 40 9 22 20 40 24 40 4 0 13
14 20 30 7 17 15 30 19 30 4 0 15 23 25 50 10 28 21 50 25 50 4 0 13 17 20 38
8 20 17 39 20 42 9 6 41 107 41 126 0 8 4 14 9 14 9 0 41 156 41 203 0 15 5
27 10 27 6 0 10 53 10 140 0 87 -4 140 -10 140 -5 0 -10 15 -10 33 0 47 -31
197 -41 197 -5 0 -9 6 -9 14 0 24 -33 116 -41 116 -5 0 -14 18 -20 40 -7 22
-16 40 -20 40 -4 0 -12 15 -19 34 -6 19 -22 47 -35 62 -14 16 -25 33 -25 38 0
15 -34 35 -61 36 -14 0 -37 -10 -51 -22z"/>
<path d="M12934 20882 c-11 -9 -27 -32 -35 -50 -7 -17 -17 -32 -20 -32 -3 0
-14 -20 -25 -45 -10 -25 -22 -45 -26 -45 -4 0 -15 -25 -23 -55 -9 -30 -20 -55
-24 -55 -5 0 -14 -27 -21 -60 -7 -33 -16 -60 -20 -60 -14 0 -32 -132 -37 -280
-5 -153 14 -355 35 -369 5 -3 15 -34 22 -68 7 -35 16 -63 21 -63 4 0 15 -25
24 -55 8 -30 19 -55 23 -55 5 0 16 -22 26 -50 10 -27 21 -50 25 -50 4 0 13
-16 21 -35 8 -19 17 -35 20 -35 3 0 14 -16 23 -35 9 -19 20 -35 24 -35 5 0 15
-15 22 -32 8 -18 23 -39 33 -46 10 -7 18 -19 18 -27 0 -8 9 -19 20 -25 11 -6
20 -16 20 -23 0 -7 14 -27 30 -45 17 -18 30 -37 30 -41 0 -11 46 -31 70 -31
27 0 74 50 106 112 9 18 23 37 30 41 8 4 14 14 14 22 0 7 6 20 13 27 7 7 22
45 32 83 10 39 23 73 28 76 4 3 13 37 20 75 6 38 16 72 22 76 14 10 14 456 -1
466 -5 4 -16 43 -22 87 -7 43 -16 82 -20 85 -5 3 -15 33 -22 68 -7 35 -18 69
-24 75 -7 7 -18 31 -25 55 -8 23 -17 42 -21 42 -3 0 -14 23 -24 50 -10 28 -21
50 -25 50 -3 0 -12 15 -20 33 -14 31 -20 40 -61 85 -11 12 -20 26 -20 31 0 5
-11 18 -25 29 -14 11 -25 24 -25 29 0 12 -70 84 -103 106 -33 22 -76 21 -103
-1z"/>
<path d="M7990 19894 c-118 -9 -403 -57 -554 -95 -955 -239 -1762 -901 -2189
-1795 -144 -303 -238 -614 -293 -969 -26 -165 -28 -203 -28 -465 0 -262 2
-300 28 -470 137 -898 592 -1666 1307 -2203 520 -391 1133 -613 1816 -659 207
-14 429 -1 678 37 1436 224 2558 1351 2779 2790 55 361 55 641 0 1005 -201
1319 -1167 2390 -2459 2724 -277 72 -472 97 -775 101 -140 1 -280 1 -310 -1z
m-305 -1486 c17 1 79 -6 139 -15 87 -13 124 -24 189 -57 69 -35 86 -49 112
-90 38 -62 39 -117 5 -201 -22 -55 -87 -155 -116 -181 -7 -6 -30 -36 -51 -66
-21 -31 -74 -97 -118 -148 -44 -50 -89 -105 -100 -122 -11 -16 -63 -84 -116
-151 -92 -117 -125 -165 -117 -172 8 -8 168 -5 258 4 95 10 168 26 292 63 37
11 72 17 78 13 5 -3 10 0 10 6 0 7 16 29 35 49 28 28 37 49 45 93 23 141 166
346 253 362 61 12 86 0 109 -52 19 -42 19 -51 8 -100 -18 -74 -56 -135 -144
-231 -42 -45 -76 -88 -76 -95 1 -37 15 -57 52 -72 71 -28 162 5 236 87 34 37
45 57 52 102 23 140 166 345 253 361 61 12 86 0 109 -52 19 -42 19 -51 8 -100
-18 -74 -56 -135 -144 -231 -42 -45 -76 -88 -76 -95 1 -37 15 -57 52 -72 47
-19 92 -13 160 21 l47 24 17 -47 18 -46 -40 -34 c-51 -44 -84 -62 -151 -79
-72 -19 -99 -18 -148 6 -32 16 -47 32 -65 70 -37 79 -41 79 -107 20 -68 -61
-96 -77 -170 -96 -72 -19 -99 -18 -148 6 -32 16 -47 32 -65 70 -31 65 -45 78
-68 57 -23 -20 -187 -80 -292 -107 -47 -12 -125 -34 -175 -50 -240 -76 -396
-91 -436 -41 -22 27 -25 90 -8 142 14 42 72 120 156 212 35 38 101 119 148
181 46 62 91 119 100 126 23 19 113 150 177 255 59 98 88 163 81 183 -3 7 -27
24 -53 37 -59 30 -179 45 -339 41 -115 -2 -141 5 -141 38 0 21 57 141 74 155
26 21 69 30 116 24 25 -4 59 -6 75 -5z m-563 -2790 c-7 -144 32 -313 84 -365
42 -41 70 -31 154 55 42 42 103 114 135 160 58 84 123 140 146 126 19 -11 3
-174 -27 -284 -14 -52 -35 -126 -45 -165 -11 -38 -30 -120 -43 -181 -22 -104
-26 -114 -62 -147 -45 -42 -59 -46 -50 -14 3 12 13 73 22 135 8 61 28 178 43
260 16 81 27 148 26 150 -2 2 -53 -46 -113 -107 -108 -109 -140 -131 -187
-131 -32 0 -77 40 -111 97 -15 26 -29 43 -31 38 -6 -20 -63 -397 -63 -419 0
-29 -15 -42 -59 -51 l-34 -7 7 78 c4 44 10 113 12 154 2 41 9 110 15 153 5 42
7 81 4 86 -3 5 1 40 9 78 8 37 17 116 20 175 3 58 9 113 12 122 11 30 104 89
129 82 6 -2 9 -34 7 -78z m1637 -28 c6 -47 -36 -201 -84 -305 -29 -65 -65
-201 -65 -249 0 -21 10 -56 22 -77 34 -61 54 -54 155 51 48 50 94 90 103 90
34 0 52 -26 66 -95 19 -94 29 -115 55 -115 12 0 37 11 55 25 31 23 34 24 44 8
8 -15 9 -13 4 8 -5 23 1 31 33 55 21 16 54 45 74 64 99 97 204 177 247 190 31
8 62 -3 62 -24 0 -7 -65 -78 -145 -157 -131 -132 -161 -169 -137 -169 5 0 50
36 100 79 50 44 100 82 112 86 35 11 50 -12 50 -74 0 -80 28 -103 70 -58 21
22 22 22 36 3 20 -28 18 -38 -18 -73 -43 -40 -69 -53 -108 -53 -37 0 -80 38
-80 72 0 52 -15 48 -93 -22 -96 -86 -146 -114 -181 -100 -35 13 -44 54 -21 96
9 18 15 38 12 46 -4 9 -6 8 -6 -4 -1 -25 -117 -98 -155 -97 -52 1 -65 12 -99
79 -18 35 -37 65 -44 68 -7 2 -38 -24 -69 -57 -63 -67 -95 -79 -145 -58 -43
18 -63 42 -79 92 -7 22 -15 44 -17 48 -7 11 -32 -12 -58 -53 -13 -20 -54 -69
-93 -108 -61 -63 -74 -72 -105 -72 -28 0 -40 6 -52 24 -15 22 -15 29 -1 75 8
28 13 51 10 51 -3 0 -22 -9 -44 -20 -70 -36 -125 -18 -145 48 -3 12 -10 22
-13 22 -4 0 -34 -31 -66 -69 -75 -88 -125 -112 -168 -78 -20 14 -38 78 -38
130 0 45 -10 47 -44 7 -24 -29 -26 -29 -36 -11 -5 11 -10 25 -10 30 0 9 76
110 175 233 17 21 63 34 76 21 5 -5 -1 -40 -16 -88 -26 -85 -42 -193 -31 -220
12 -34 61 11 147 134 46 68 76 85 105 61 7 -7 14 -29 15 -49 1 -54 13 -86 32
-89 20 -4 57 25 201 160 57 53 121 107 143 121 33 21 42 36 72 118 40 111 95
225 124 257 27 29 61 25 66 -8z m260 -139 c22 -14 -5 -109 -42 -143 -40 -38
-93 -39 -107 -2 -14 35 7 71 66 117 50 39 60 42 83 28z"/>
<path d="M8443 17603 c-14 -5 -68 -89 -78 -121 -11 -37 16 -24 64 31 48 57 56
105 14 90z"/>
<path d="M8933 17603 c-14 -5 -68 -89 -78 -121 -11 -37 16 -24 64 31 48 57 56
105 14 90z"/>
<path d="M8472 15100 c-85 -90 -164 -212 -148 -227 21 -20 192 205 184 244 -3
14 -9 11 -36 -17z"/>
<path d="M4560 19620 c0 -5 -12 -10 -27 -10 -42 0 -193 -32 -193 -40 0 -5 -18
-11 -40 -15 -22 -4 -46 -12 -53 -19 -6 -7 -35 -21 -62 -31 -28 -11 -52 -22
-55 -26 -3 -3 -23 -14 -45 -25 -21 -10 -47 -25 -56 -34 -9 -8 -29 -24 -43 -35
-15 -11 -44 -36 -64 -55 -21 -19 -50 -43 -65 -53 -15 -9 -27 -22 -27 -27 0 -5
-15 -24 -32 -43 -37 -38 -56 -64 -64 -89 -4 -10 -10 -18 -14 -18 -4 0 -13 -13
-20 -30 -7 -16 -16 -30 -20 -30 -10 0 -28 -64 -36 -130 -4 -30 -10 -57 -14
-60 -4 -3 -10 -31 -13 -63 -8 -78 12 -98 114 -116 41 -8 77 -18 81 -24 9 -14
206 -15 216 -1 4 6 46 18 95 28 48 10 87 22 87 26 0 5 18 11 40 15 22 4 46 12
53 19 6 7 35 21 62 31 28 11 56 25 63 32 7 7 20 13 28 13 8 0 22 8 32 18 10 9
31 24 47 32 17 8 36 23 43 33 7 9 18 17 24 17 5 0 20 9 32 19 11 11 47 44 80
73 32 29 68 64 80 77 11 13 31 33 44 44 12 12 22 24 22 28 0 5 10 19 23 32 12
13 31 36 42 51 11 15 28 36 37 46 9 10 22 37 28 59 6 23 14 41 19 41 4 0 16
34 26 75 26 102 17 118 -76 140 -37 8 -79 15 -93 15 -15 0 -26 5 -26 10 0 6
-53 10 -140 10 -87 0 -140 -4 -140 -10z"/>
<path d="M11690 19620 c0 -5 -15 -10 -32 -10 -55 0 -160 -29 -174 -48 -22 -29
-12 -117 16 -142 3 -3 12 -25 20 -50 8 -25 17 -47 20 -50 3 -3 13 -20 24 -39
18 -32 32 -50 76 -96 11 -12 20 -24 20 -29 0 -12 188 -196 200 -196 5 0 17
-11 26 -25 9 -14 22 -25 30 -25 7 0 19 -8 26 -17 7 -10 27 -25 43 -33 17 -8
36 -20 43 -27 7 -6 28 -17 47 -24 19 -7 35 -16 35 -20 0 -4 23 -15 50 -25 28
-10 50 -21 50 -25 0 -4 23 -13 50 -20 28 -7 50 -16 50 -20 0 -3 39 -15 88 -25
48 -10 90 -22 94 -28 9 -13 207 -13 216 0 4 6 45 18 91 27 47 9 89 23 94 30
11 16 -1 201 -13 205 -6 2 -10 16 -10 31 0 33 -29 121 -39 121 -5 0 -16 18
-26 39 -10 22 -24 42 -31 45 -8 3 -14 11 -14 18 0 7 -21 32 -45 56 -25 24 -45
48 -45 53 0 5 -6 9 -12 9 -7 0 -31 21 -52 45 -22 25 -45 45 -52 45 -7 0 -18 9
-24 20 -6 11 -17 20 -25 20 -8 0 -18 6 -22 13 -4 7 -27 21 -50 31 -24 11 -43
22 -43 26 0 3 -22 14 -50 24 -27 10 -50 21 -50 25 0 4 -24 13 -52 21 -29 7
-56 17 -59 22 -3 5 -51 17 -105 26 -54 9 -100 20 -102 24 -5 12 -282 10 -282
-2z"/>
<path d="M2487 19366 c-11 -8 -22 -39 -29 -77 -7 -35 -17 -67 -22 -71 -16 -10
-15 -566 0 -576 6 -4 17 -46 24 -94 7 -49 17 -88 21 -88 4 0 15 -31 24 -70 9
-38 20 -70 24 -70 4 0 13 -20 20 -45 7 -25 17 -45 21 -45 4 0 16 -22 26 -50
10 -27 21 -50 26 -50 4 0 15 -17 25 -37 16 -35 28 -51 73 -98 11 -12 20 -24
20 -28 0 -11 108 -117 120 -117 5 0 14 -8 19 -19 6 -10 24 -24 41 -31 16 -7
30 -16 30 -20 0 -4 21 -15 47 -25 27 -10 54 -24 61 -31 7 -7 28 -16 47 -20 19
-3 35 -10 35 -15 0 -5 11 -9 24 -9 39 0 73 39 81 93 4 26 11 47 15 47 13 0 30
197 30 351 0 147 -16 339 -29 349 -4 3 -13 30 -20 60 -8 30 -17 57 -21 60 -3
3 -14 35 -24 73 -10 37 -22 67 -26 67 -4 0 -13 18 -20 40 -7 22 -17 40 -22 40
-4 0 -15 18 -24 40 -9 22 -19 40 -23 40 -5 0 -13 12 -20 28 -7 15 -19 34 -27
42 -7 8 -24 27 -36 41 -48 56 -66 75 -90 95 -14 12 -31 30 -39 41 -8 11 -27
28 -44 39 -16 10 -32 21 -35 25 -3 3 -20 14 -37 23 -18 9 -33 21 -33 25 0 5
-14 12 -30 16 -17 4 -36 12 -43 19 -17 17 -93 46 -120 46 -12 0 -30 -7 -40
-14z"/>
<path d="M13930 19363 c-24 -9 -51 -22 -58 -30 -7 -7 -20 -13 -27 -13 -7 0
-20 -6 -27 -13 -7 -7 -29 -22 -48 -33 -19 -10 -41 -27 -48 -36 -7 -10 -18 -18
-24 -18 -15 0 -180 -169 -203 -208 -11 -18 -22 -32 -26 -32 -4 0 -12 -13 -19
-30 -7 -16 -16 -30 -20 -30 -4 0 -15 -20 -26 -45 -10 -25 -21 -45 -26 -45 -4
0 -13 -18 -19 -40 -7 -22 -15 -40 -20 -40 -4 0 -15 -33 -24 -72 -10 -40 -22
-76 -27 -79 -11 -7 -37 -148 -38 -201 0 -21 -4 -38 -10 -38 -6 0 -10 -70 -10
-190 0 -120 4 -190 10 -190 6 0 10 -15 10 -33 0 -19 7 -75 16 -126 18 -104 42
-141 94 -141 17 0 30 4 30 9 0 4 20 14 45 21 25 7 45 16 45 20 0 4 21 15 48
25 26 10 51 24 55 32 4 7 14 13 22 13 8 0 20 9 27 20 7 11 17 20 23 20 10 0
114 106 150 154 11 14 30 37 42 51 13 14 26 37 29 50 3 14 10 25 16 25 5 0 14
14 19 30 6 17 14 30 18 30 4 0 15 23 25 50 10 28 21 50 25 50 4 0 16 33 26 73
10 39 22 75 27 78 5 3 14 37 20 75 6 38 15 71 19 74 37 26 37 675 -1 700 -4 3
-10 22 -14 42 -11 59 -44 69 -126 41z"/>
<path d="M4363 18573 c-18 -2 -33 -8 -33 -14 0 -5 -9 -9 -21 -9 -25 0 -132
-30 -139 -39 -3 -4 -24 -13 -47 -21 -24 -7 -43 -16 -43 -20 0 -4 -21 -15 -47
-25 -27 -10 -52 -24 -56 -32 -4 -7 -14 -13 -22 -13 -7 0 -20 -6 -27 -13 -7 -7
-26 -22 -43 -33 -41 -26 -53 -35 -80 -61 -12 -13 -26 -23 -30 -23 -9 0 -165
-156 -165 -166 0 -4 -10 -17 -22 -30 -42 -43 -53 -59 -72 -102 -10 -23 -22
-42 -26 -42 -4 0 -13 -20 -19 -45 -6 -25 -15 -45 -20 -45 -23 0 -40 -195 -21
-245 17 -45 70 -85 111 -85 11 0 19 -4 19 -10 0 -6 40 -10 100 -10 60 0 100 4
100 10 0 6 12 10 28 10 36 1 144 27 151 37 3 4 32 17 64 27 31 11 57 23 57 27
0 4 16 13 35 19 19 6 35 15 35 20 0 4 18 15 40 24 22 9 40 20 40 26 0 5 6 10
14 10 8 0 21 8 28 18 13 16 38 35 66 48 11 5 75 62 114 102 76 77 138 145 138
152 0 5 8 15 18 22 9 7 23 25 31 41 8 15 17 27 21 27 4 0 15 20 26 45 10 25
21 45 25 45 4 0 15 23 25 50 10 28 21 50 24 50 4 0 13 25 20 55 7 30 17 55 22
55 4 0 8 18 8 40 0 49 -29 86 -75 94 -19 4 -35 12 -37 18 -4 12 -250 21 -315
11z"/>
<path d="M11873 18573 c-18 -2 -33 -8 -33 -12 0 -4 -18 -14 -41 -21 -56 -19
-65 -42 -51 -126 6 -37 15 -70 20 -73 5 -3 16 -30 26 -60 9 -29 24 -60 32 -68
8 -8 14 -21 14 -28 0 -8 6 -18 13 -22 7 -4 21 -25 31 -45 9 -21 21 -38 26 -38
6 0 10 -6 10 -14 0 -8 11 -23 25 -34 14 -11 25 -24 25 -29 0 -5 10 -18 23 -30
12 -11 31 -31 43 -44 11 -13 32 -34 45 -45 13 -12 39 -38 58 -58 19 -20 37
-36 42 -36 4 0 21 -12 36 -26 46 -42 57 -50 76 -57 9 -4 17 -11 17 -16 0 -5
18 -16 40 -25 22 -9 40 -20 40 -25 0 -5 17 -15 37 -22 21 -6 43 -17 49 -23 6
-7 31 -18 55 -26 24 -8 46 -17 49 -20 7 -9 133 -40 160 -40 11 0 20 -4 20 -10
0 -6 40 -10 100 -10 60 0 100 4 100 10 0 6 12 10 26 10 69 0 114 66 114 165 0
60 -29 205 -41 205 -4 0 -15 23 -25 50 -10 28 -22 50 -26 50 -5 0 -13 11 -18
25 -5 14 -13 25 -17 25 -5 0 -17 17 -28 38 -11 20 -28 43 -39 51 -10 8 -28 25
-40 39 -42 48 -120 122 -131 122 -5 0 -16 9 -23 20 -7 11 -17 20 -22 20 -6 0
-19 8 -30 18 -11 9 -28 24 -38 33 -11 9 -33 22 -50 30 -18 8 -32 17 -32 20 0
4 -22 15 -50 25 -27 10 -50 21 -50 24 0 4 -18 13 -40 20 -22 7 -40 17 -40 21
0 4 -35 15 -77 25 -43 10 -81 22 -84 28 -7 9 -271 17 -326 9z"/>
<path d="M2017 17907 c-17 -19 -18 -34 -12 -122 3 -55 9 -102 13 -105 4 -3 16
-45 26 -95 10 -49 21 -92 25 -95 4 -3 16 -32 26 -65 11 -33 26 -66 33 -73 6
-7 12 -20 12 -27 0 -7 6 -20 13 -27 7 -7 22 -32 32 -55 10 -24 23 -43 27 -43
5 0 13 -11 18 -25 5 -14 14 -25 19 -25 5 0 11 -8 15 -17 8 -27 29 -56 49 -71
9 -7 17 -18 17 -24 0 -12 194 -208 207 -208 5 0 16 -8 24 -17 24 -26 51 -47
90 -69 19 -10 38 -25 42 -31 4 -7 14 -13 22 -13 7 0 20 -6 27 -13 7 -7 37 -22
66 -32 28 -10 52 -22 52 -26 0 -4 35 -15 78 -25 42 -10 80 -22 83 -26 3 -5 60
-12 127 -15 l122 -6 25 27 c24 26 35 86 16 86 -4 0 -17 38 -27 85 -10 47 -21
85 -25 85 -3 0 -12 27 -19 60 -7 33 -16 60 -21 60 -4 0 -15 25 -24 55 -8 30
-20 55 -25 55 -6 0 -10 7 -10 15 0 8 -9 24 -20 35 -11 11 -22 30 -26 44 -3 13
-14 33 -24 43 -10 11 -25 34 -34 51 -9 18 -20 32 -25 32 -5 0 -14 13 -21 29
-6 16 -18 32 -26 35 -8 3 -14 11 -14 18 0 15 -34 56 -105 129 -25 26 -45 50
-45 54 0 4 -19 26 -42 49 -24 23 -54 56 -67 74 -13 18 -30 32 -36 32 -7 0 -20
11 -29 25 -9 14 -23 25 -31 25 -8 0 -18 6 -22 13 -4 8 -29 22 -55 32 -27 10
-48 21 -48 25 0 5 -24 14 -52 20 -29 7 -55 17 -58 21 -3 5 -51 16 -105 26 -55
9 -101 21 -103 25 -2 4 -34 8 -70 8 -57 0 -70 -4 -85 -23z"/>
<path d="M14360 17920 c0 -5 -12 -10 -27 -10 -36 0 -196 -31 -203 -40 -3 -3
-24 -12 -47 -18 -24 -7 -43 -17 -43 -22 0 -6 -6 -10 -13 -10 -16 0 -79 -30
-87 -40 -3 -4 -20 -15 -37 -24 -18 -9 -33 -21 -33 -27 0 -5 -11 -14 -25 -19
-14 -5 -25 -14 -25 -19 0 -5 -25 -35 -55 -67 -30 -33 -55 -65 -55 -71 0 -7 -4
-13 -8 -13 -11 0 -82 -71 -82 -82 0 -4 -13 -20 -29 -35 -15 -16 -36 -43 -45
-60 -9 -18 -20 -33 -24 -33 -4 0 -16 -17 -27 -37 -11 -21 -25 -42 -32 -46 -7
-4 -13 -14 -13 -22 0 -8 -6 -18 -13 -22 -7 -4 -21 -26 -32 -48 -10 -22 -21
-42 -24 -45 -10 -8 -31 -49 -31 -61 0 -6 -6 -17 -14 -25 -8 -8 -20 -39 -27
-69 -7 -30 -16 -55 -20 -55 -4 0 -15 -35 -25 -77 -10 -43 -21 -80 -24 -83 -8
-6 -30 -92 -30 -118 0 -10 10 -29 22 -42 21 -22 25 -23 142 -17 69 4 122 11
124 17 2 5 11 10 20 10 32 0 147 33 160 46 7 8 19 14 26 14 17 0 66 24 66 32
0 3 16 12 36 18 20 7 45 20 55 29 11 9 28 24 39 34 11 9 24 17 30 17 5 0 15 9
22 20 7 11 18 20 24 20 6 0 22 12 36 28 14 15 36 36 49 48 13 11 34 32 45 45
12 13 38 39 58 58 20 19 36 39 36 45 0 6 9 17 20 24 11 7 20 19 20 27 0 8 9
19 20 25 11 6 20 17 20 25 0 8 6 18 13 22 7 4 21 27 31 51 11 23 22 42 26 42
4 0 13 18 20 40 7 22 17 40 21 40 4 0 16 25 25 55 10 30 21 55 24 55 4 0 15
37 25 83 10 45 22 84 26 87 10 7 29 151 29 218 -1 80 -13 92 -94 92 -37 0 -66
-4 -66 -10z"/>
<path d="M4413 17563 c-18 -2 -33 -8 -33 -14 0 -5 -13 -9 -29 -9 -35 0 -131
-30 -131 -41 0 -4 -16 -13 -35 -19 -19 -6 -35 -15 -35 -19 0 -3 -17 -15 -37
-26 -21 -11 -54 -37 -74 -57 -19 -21 -40 -38 -47 -38 -6 0 -15 -6 -19 -13 -4
-7 -24 -20 -43 -29 -19 -9 -41 -26 -48 -37 -7 -12 -17 -21 -22 -21 -13 0 -100
-86 -100 -98 0 -5 -12 -21 -27 -35 -47 -45 -60 -63 -79 -106 -10 -22 -21 -41
-24 -41 -4 0 -12 -18 -19 -40 -6 -22 -16 -40 -20 -40 -5 0 -17 -30 -27 -67
-10 -38 -23 -71 -28 -75 -17 -11 -15 -320 2 -325 6 -3 12 -12 12 -21 1 -42 23
-52 119 -52 50 0 91 3 91 8 0 4 38 16 85 26 47 10 85 22 85 25 0 4 22 15 49
25 27 9 52 23 55 31 2 7 18 16 35 20 17 4 31 11 31 16 0 4 14 16 30 24 37 19
56 34 124 98 28 26 54 47 59 47 10 0 67 59 67 69 0 4 10 16 23 28 29 26 61 64
84 100 9 15 23 32 30 36 7 4 13 14 13 22 0 8 6 18 13 22 8 4 22 27 32 51 11
23 22 42 25 42 3 0 12 17 19 37 8 21 19 43 26 49 6 7 18 41 25 76 7 35 18 66
24 70 14 9 14 247 0 256 -6 4 -16 17 -23 30 -11 21 -17 22 -119 20 -59 0 -122
-3 -139 -5z"/>
<path d="M11852 17550 c-12 -13 -22 -36 -22 -52 0 -15 -4 -28 -10 -28 -6 0
-10 -30 -10 -70 0 -38 3 -70 8 -70 4 0 13 -35 20 -77 6 -42 16 -79 20 -82 4
-3 14 -26 22 -50 8 -24 19 -49 25 -55 6 -6 20 -32 30 -59 10 -26 21 -47 26
-47 4 0 10 -8 14 -19 3 -10 13 -28 23 -39 9 -11 28 -35 42 -53 14 -17 36 -44
50 -60 14 -15 39 -45 55 -65 38 -47 66 -74 78 -74 5 0 26 -18 47 -40 21 -22
43 -40 49 -40 5 0 16 -8 23 -18 7 -9 30 -26 51 -37 20 -11 37 -22 37 -26 0 -4
14 -12 30 -19 17 -7 30 -15 30 -19 0 -4 23 -15 50 -25 28 -10 50 -21 50 -26 0
-4 38 -16 85 -26 47 -10 85 -22 85 -26 0 -5 42 -8 94 -8 86 0 95 2 101 20 3
11 10 20 15 20 11 0 30 115 30 189 0 69 -18 203 -29 211 -4 3 -15 31 -24 63
-10 31 -22 57 -26 57 -4 0 -13 18 -20 39 -6 21 -17 41 -25 44 -8 3 -17 19 -21
36 -4 17 -15 36 -26 41 -10 6 -19 17 -19 25 0 8 -11 22 -25 31 -14 9 -25 21
-25 26 0 12 -61 78 -73 78 -5 0 -23 16 -41 35 -19 19 -37 35 -42 35 -5 0 -22
11 -38 25 -16 14 -33 25 -38 25 -4 0 -25 17 -46 39 -20 21 -52 46 -69 55 -18
9 -33 20 -33 25 0 4 -18 14 -40 21 -22 7 -40 16 -40 20 0 4 -30 16 -67 26 -38
10 -71 22 -74 27 -4 5 -69 11 -146 14 -137 6 -140 5 -161 -17z"/>
<path d="M2060 16640 c-15 -15 -20 -33 -20 -71 0 -68 22 -229 31 -229 4 0 12
-29 19 -66 7 -36 18 -70 24 -77 6 -7 18 -31 25 -54 8 -24 18 -43 23 -43 4 0 8
-7 8 -15 0 -17 28 -76 39 -85 4 -3 13 -20 20 -37 8 -18 17 -33 21 -33 4 0 15
-16 24 -35 9 -19 21 -35 25 -35 5 0 11 -8 15 -17 9 -27 28 -54 64 -89 17 -17
32 -35 32 -38 0 -11 117 -126 127 -126 4 0 22 -15 38 -32 17 -18 47 -42 68
-53 20 -11 37 -23 37 -27 0 -4 16 -14 35 -22 19 -8 35 -19 35 -24 0 -5 18 -14
40 -21 22 -6 40 -15 40 -20 0 -4 28 -16 63 -26 34 -11 65 -23 68 -27 3 -4 40
-14 82 -20 42 -7 77 -16 77 -20 0 -5 41 -8 90 -8 53 0 90 4 90 10 0 6 7 10 15
10 8 0 18 12 21 26 7 27 -14 174 -25 174 -4 0 -16 41 -26 90 -10 50 -22 90
-26 90 -4 0 -13 23 -20 50 -7 28 -16 50 -20 50 -4 0 -15 27 -25 60 -10 33 -21
60 -25 60 -3 0 -12 14 -19 30 -7 17 -15 30 -19 30 -3 0 -12 15 -20 33 -14 32
-20 40 -63 88 -13 14 -30 38 -38 55 -8 16 -23 38 -32 48 -10 11 -18 23 -18 28
0 12 -185 198 -198 198 -6 0 -17 8 -24 18 -7 10 -28 24 -45 31 -18 7 -33 17
-33 21 0 4 -22 16 -50 26 -27 10 -50 21 -50 26 0 4 -19 12 -42 19 -24 6 -45
15 -48 19 -3 4 -45 16 -95 26 -49 10 -92 21 -95 25 -4 6 -153 29 -187 29 -7 0
-22 -9 -33 -20z"/>
<path d="M14305 16648 c-38 -6 -72 -13 -75 -17 -3 -4 -44 -15 -92 -25 -49 -10
-88 -22 -88 -26 0 -4 -20 -13 -45 -20 -25 -7 -45 -16 -45 -20 0 -5 -22 -16
-50 -25 -27 -9 -50 -20 -50 -23 0 -4 -14 -13 -32 -21 -31 -14 -49 -27 -92 -68
-13 -13 -27 -23 -33 -23 -5 0 -24 -18 -43 -40 -19 -22 -48 -55 -65 -73 -16
-18 -39 -49 -49 -68 -11 -19 -28 -43 -38 -53 -10 -11 -18 -24 -18 -30 0 -5 -7
-16 -15 -25 -44 -48 -52 -60 -68 -94 -10 -20 -21 -37 -25 -37 -5 0 -14 -17
-21 -37 -8 -21 -18 -41 -23 -44 -5 -3 -16 -32 -25 -65 -9 -32 -22 -64 -29 -71
-6 -7 -18 -42 -25 -78 -7 -36 -16 -65 -20 -65 -4 0 -12 -30 -19 -67 -7 -38
-17 -71 -21 -74 -5 -3 -12 -33 -15 -67 -7 -59 -6 -62 20 -73 14 -7 26 -16 26
-21 0 -4 32 -8 70 -8 40 0 70 4 70 10 0 6 15 10 33 10 48 0 147 21 147 31 0 5
6 9 14 9 18 0 120 32 126 40 3 3 20 12 38 19 17 8 32 17 32 20 0 4 19 15 41
25 23 10 50 26 60 35 11 9 28 24 39 34 11 9 23 17 27 17 4 0 28 23 54 50 26
28 52 50 58 50 7 0 14 7 18 16 3 8 32 42 64 75 33 32 59 62 59 66 0 5 14 24
30 43 16 19 30 40 30 45 0 6 9 18 20 28 11 9 20 23 20 31 0 8 6 19 13 23 8 4
22 29 32 56 10 26 21 47 25 47 4 0 13 20 20 45 7 25 16 45 20 45 4 0 16 32 25
70 9 39 21 70 25 70 11 0 35 175 35 263 0 104 -6 107 -170 85z"/>
<path d="M4508 16503 c-10 -2 -18 -8 -18 -13 0 -4 -13 -13 -30 -20 -16 -7 -30
-15 -30 -19 0 -4 -16 -13 -35 -20 -19 -7 -40 -18 -47 -24 -7 -7 -32 -21 -55
-31 -24 -11 -43 -23 -43 -28 0 -4 -7 -8 -15 -8 -8 0 -23 -8 -34 -19 -10 -10
-35 -24 -55 -31 -20 -6 -39 -17 -43 -24 -5 -7 -25 -19 -45 -25 -21 -7 -38 -16
-38 -21 0 -5 -17 -17 -37 -27 -21 -9 -44 -25 -51 -35 -7 -10 -17 -18 -23 -18
-13 0 -119 -105 -119 -118 0 -6 -6 -15 -13 -19 -8 -4 -22 -21 -33 -38 -10 -16
-27 -39 -36 -49 -10 -11 -18 -26 -18 -33 0 -7 -4 -13 -8 -13 -4 0 -16 -22 -26
-50 -10 -27 -22 -50 -26 -50 -4 0 -13 -21 -20 -47 -6 -26 -16 -50 -21 -53 -5
-4 -17 -44 -26 -91 -9 -46 -20 -85 -25 -87 -10 -5 -11 -172 0 -172 5 0 16 -43
26 -95 14 -75 22 -96 37 -100 10 -4 19 -11 19 -16 0 -5 18 -9 40 -9 22 0 40 4
40 9 0 4 34 11 76 15 83 6 154 24 154 38 0 4 6 8 13 8 7 0 22 8 33 18 10 10
34 27 53 38 19 10 45 28 59 39 50 40 239 231 258 260 22 35 33 50 54 74 9 9
24 34 34 56 11 22 25 46 33 53 7 8 19 34 25 58 7 24 16 44 20 44 4 0 13 19 20
43 7 23 18 47 24 54 6 7 17 41 24 77 7 37 16 66 20 66 4 0 14 39 21 87 10 69
10 110 1 207 -7 67 -17 123 -22 124 -6 2 -10 10 -10 17 0 22 -37 30 -82 18z"/>
<path d="M11936 16485 c-9 -13 -16 -33 -16 -44 0 -11 -5 -21 -11 -23 -16 -5
-19 -306 -3 -316 6 -4 18 -46 28 -94 10 -49 22 -88 27 -88 5 0 14 -20 20 -45
6 -25 14 -45 18 -45 4 0 13 -20 20 -45 7 -24 22 -54 32 -66 11 -13 22 -33 25
-46 4 -13 10 -23 15 -23 5 0 15 -16 23 -35 8 -19 19 -35 24 -35 5 0 14 -12 21
-27 15 -34 13 -31 148 -165 138 -137 143 -141 187 -162 20 -9 36 -21 36 -26 0
-6 6 -10 13 -10 7 0 23 -9 35 -21 24 -21 131 -49 195 -49 20 0 37 -4 37 -10 0
-5 20 -10 45 -10 61 0 80 20 96 100 7 36 17 68 23 72 15 10 15 256 1 266 -6 4
-19 42 -29 85 -10 42 -21 77 -25 77 -4 0 -12 20 -19 45 -7 25 -16 45 -20 45
-5 0 -17 25 -27 55 -11 30 -23 55 -27 55 -4 0 -15 14 -24 32 -9 17 -32 46 -50
63 -19 18 -34 37 -34 42 0 8 -34 41 -136 129 -13 12 -38 27 -54 34 -17 7 -30
16 -30 20 0 5 -16 14 -35 20 -19 6 -35 15 -35 20 0 5 -20 16 -44 25 -25 10
-47 23 -50 30 -2 7 -16 15 -31 19 -15 4 -36 15 -47 26 -11 10 -34 22 -49 25
-16 4 -29 10 -29 15 0 4 -17 16 -37 25 -21 10 -40 21 -43 24 -3 3 -18 13 -35
21 -16 8 -36 21 -43 28 -23 21 -68 15 -86 -13z"/>
<path d="M4593 15501 c-35 -15 -123 -96 -123 -113 0 -4 -16 -23 -35 -42 -19
-20 -35 -39 -35 -43 0 -4 -11 -19 -25 -33 -47 -46 -85 -94 -85 -107 0 -7 -4
-13 -10 -13 -5 0 -17 -15 -26 -32 -9 -18 -20 -35 -24 -38 -4 -3 -15 -24 -25
-47 -11 -24 -22 -43 -25 -43 -3 0 -12 -22 -19 -50 -7 -27 -16 -50 -20 -50 -4
0 -16 -37 -26 -82 -10 -46 -22 -85 -26 -88 -10 -8 -29 -175 -29 -260 1 -97 17
-224 30 -228 6 -2 10 -10 10 -18 0 -25 33 -118 47 -132 7 -7 13 -20 13 -27 0
-7 6 -20 13 -27 7 -7 22 -28 33 -47 30 -55 51 -71 89 -71 19 0 35 4 35 9 0 5
16 15 35 21 19 6 35 15 35 19 0 3 17 15 38 26 20 11 43 28 50 37 7 10 18 18
23 18 13 0 69 52 69 64 0 5 10 19 23 31 37 37 67 79 73 103 3 12 9 22 13 22 4
0 15 23 25 50 10 28 21 50 25 50 4 0 14 26 21 58 7 31 16 59 20 62 9 6 40 169
40 212 0 14 6 28 13 31 15 5 18 624 2 635 -6 4 -16 25 -24 47 -8 22 -27 53
-44 69 -26 26 -38 31 -91 33 -33 2 -71 -1 -83 -6z"/>
<path d="M11787 15499 c-67 -39 -89 -90 -95 -221 -2 -60 -8 -108 -13 -108 -5
0 -9 -63 -9 -140 0 -87 4 -140 10 -140 6 0 10 -24 10 -54 0 -69 30 -299 39
-306 4 -3 14 -33 21 -67 7 -35 16 -63 19 -63 4 0 13 -20 20 -46 7 -25 19 -51
27 -58 7 -8 16 -25 20 -40 3 -14 12 -30 19 -34 7 -4 20 -23 30 -42 10 -19 26
-41 36 -48 11 -7 19 -18 19 -24 0 -12 47 -58 60 -58 5 0 17 -10 27 -23 10 -12
35 -31 56 -40 20 -10 37 -22 37 -26 0 -4 18 -14 40 -21 22 -7 40 -17 40 -22 0
-4 13 -8 30 -8 31 0 80 34 80 56 0 6 6 14 13 17 6 2 18 22 26 43 8 21 19 43
25 50 7 6 18 31 26 55 8 24 18 47 22 50 4 3 14 40 20 82 7 42 16 77 20 77 5 0
8 56 8 125 0 69 -4 125 -8 125 -4 0 -13 39 -19 87 -7 47 -16 89 -20 92 -4 3
-16 37 -26 76 -10 38 -21 72 -25 75 -4 3 -16 31 -26 63 -11 31 -22 57 -26 57
-4 0 -13 14 -20 30 -7 17 -16 30 -20 30 -4 0 -10 8 -14 18 -6 20 -24 48 -46
72 -8 9 -26 32 -40 49 -14 18 -33 42 -43 54 -10 12 -31 37 -45 56 -48 60 -127
136 -155 149 -33 14 -125 15 -150 1z"/>
<path d="M2495 15054 c-11 -2 -50 -6 -88 -9 -62 -6 -69 -9 -83 -37 -14 -27
-14 -35 2 -86 10 -31 21 -59 24 -62 3 -3 12 -21 20 -40 8 -19 22 -43 31 -53
10 -11 20 -30 23 -43 4 -14 14 -33 24 -44 23 -25 34 -39 56 -75 11 -16 37 -47
58 -67 21 -21 38 -42 38 -46 0 -12 69 -82 80 -82 4 0 23 -16 41 -35 19 -19 37
-35 41 -35 4 0 17 -8 28 -17 11 -10 28 -25 38 -34 11 -9 33 -22 50 -30 18 -8
32 -17 32 -21 0 -4 16 -14 35 -22 19 -8 35 -19 35 -24 0 -5 18 -14 40 -21 22
-6 40 -15 40 -19 0 -5 29 -16 65 -27 36 -10 65 -21 65 -25 0 -4 28 -13 63 -20
34 -6 64 -16 67 -20 8 -13 176 -30 292 -30 111 0 259 16 268 29 3 5 15 13 28
20 25 13 31 70 9 93 -7 7 -21 37 -31 67 -9 29 -24 60 -32 68 -8 8 -14 21 -14
28 0 8 -6 18 -13 22 -7 4 -21 27 -31 51 -11 23 -23 42 -27 42 -5 0 -16 14 -24
31 -18 33 -23 39 -108 128 -33 34 -62 61 -66 61 -3 0 -22 14 -41 30 -60 52
-64 55 -92 69 -16 8 -28 18 -28 22 0 4 -13 10 -28 14 -25 5 -54 24 -102 67 -9
8 -32 22 -53 31 -20 10 -37 21 -37 25 0 4 -15 14 -32 21 -18 8 -38 20 -44 26
-6 6 -31 17 -55 25 -24 8 -46 17 -49 21 -14 20 -181 39 -334 38 -88 -1 -170
-3 -181 -5z"/>
<path d="M13595 15044 c-43 -8 -82 -18 -85 -23 -3 -4 -29 -16 -57 -25 -29 -10
-53 -21 -53 -25 0 -4 -16 -13 -35 -21 -19 -8 -35 -17 -35 -22 0 -4 -15 -15
-32 -24 -18 -9 -37 -23 -41 -30 -4 -8 -14 -14 -22 -14 -8 0 -18 -6 -22 -13 -4
-8 -27 -22 -50 -32 -24 -11 -43 -21 -43 -25 0 -3 -17 -14 -37 -25 -21 -11 -42
-25 -46 -32 -4 -7 -13 -13 -19 -13 -6 0 -20 -9 -32 -20 -12 -11 -49 -46 -83
-77 -35 -32 -63 -61 -63 -65 0 -4 -10 -18 -22 -31 -13 -13 -32 -36 -42 -51
-11 -15 -28 -36 -37 -48 -10 -11 -23 -35 -29 -54 -7 -19 -15 -34 -20 -34 -5 0
-14 -16 -21 -35 -7 -19 -16 -35 -19 -35 -3 0 -15 -29 -25 -65 -11 -36 -23 -65
-27 -65 -5 0 -8 -7 -8 -15 0 -8 5 -15 10 -15 6 0 10 -6 10 -13 0 -42 113 -67
308 -67 123 0 283 16 292 29 3 4 31 13 63 20 31 7 57 16 57 20 0 4 25 14 56
21 31 8 62 19 68 25 6 7 28 18 49 26 20 7 37 16 37 19 0 4 19 15 43 26 23 10
46 24 50 31 4 7 14 13 22 13 8 0 18 6 22 13 8 12 35 31 63 44 8 4 23 17 33 30
10 13 23 23 28 23 15 0 174 168 206 217 9 15 23 32 30 36 7 4 13 15 13 23 0 8
6 17 14 20 8 3 23 26 33 50 10 24 21 44 25 44 3 0 12 16 18 35 6 19 15 35 19
35 4 0 16 27 26 60 10 33 22 60 27 60 17 0 7 40 -16 64 -20 22 -36 27 -117 36
-134 14 -390 11 -484 -6z"/>
<path d="M5191 14613 c-53 -44 -141 -132 -141 -142 0 -5 -10 -18 -22 -28 -13
-10 -30 -31 -38 -48 -8 -16 -20 -36 -27 -43 -6 -7 -17 -28 -24 -47 -7 -19 -16
-35 -21 -35 -4 0 -15 -25 -23 -55 -9 -30 -20 -55 -24 -55 -4 0 -14 -26 -21
-57 -7 -32 -16 -60 -21 -63 -4 -3 -15 -57 -24 -120 -26 -177 -10 -545 25 -570
3 -3 12 -26 20 -52 7 -27 16 -48 20 -48 4 0 13 -18 20 -40 8 -23 18 -44 24
-48 13 -9 35 -41 42 -64 4 -10 9 -18 13 -18 3 0 24 -16 46 -35 22 -19 45 -35
52 -35 6 0 13 -5 15 -11 6 -17 112 -15 132 2 17 14 94 90 121 119 7 8 17 28
20 43 4 16 14 31 21 34 8 3 21 29 30 59 8 30 19 54 24 54 4 0 14 24 20 53 7
28 16 54 20 57 13 8 40 189 40 262 0 39 4 68 10 68 6 0 10 23 10 50 0 28 -4
50 -10 50 -6 0 -10 30 -10 69 0 84 -28 303 -39 311 -4 3 -14 29 -21 58 -6 28
-15 52 -20 52 -4 0 -15 27 -24 60 -9 33 -21 60 -25 60 -4 0 -14 25 -21 56 -8
31 -19 62 -24 68 -6 7 -16 21 -22 31 -18 33 -82 31 -123 -2z"/>
<path d="M11219 14630 c-9 -5 -23 -30 -30 -55 -7 -25 -16 -45 -20 -45 -4 0
-12 -20 -18 -45 -6 -25 -15 -45 -19 -45 -4 0 -16 -29 -26 -65 -10 -36 -22 -65
-26 -65 -4 0 -14 -29 -21 -65 -7 -36 -16 -65 -20 -65 -13 0 -32 -226 -32 -380
0 -150 18 -330 32 -330 4 0 13 -29 20 -65 7 -36 17 -65 21 -65 4 0 15 -26 25
-57 10 -32 26 -66 37 -77 10 -11 18 -26 18 -33 0 -7 3 -13 8 -13 4 0 13 -13
20 -30 16 -34 99 -120 118 -120 7 0 14 -5 16 -11 4 -13 107 -15 117 -3 3 5 19
16 35 24 36 18 86 64 86 78 0 6 8 17 18 24 10 7 25 28 33 46 7 17 17 32 21 32
3 0 14 24 24 53 9 28 20 54 24 57 10 7 40 142 40 179 0 17 5 31 10 31 6 0 10
62 10 165 0 103 -4 165 -10 165 -5 0 -10 12 -10 28 0 46 -32 202 -41 202 -5 0
-9 6 -9 14 0 19 -32 120 -41 126 -3 3 -12 22 -20 43 -7 20 -16 37 -19 37 -4 0
-15 19 -26 43 -10 23 -27 48 -36 55 -10 7 -18 19 -18 25 0 7 -9 18 -20 25 -11
7 -20 17 -20 24 0 11 -84 95 -144 146 -29 23 -78 29 -107 12z"/>
<path d="M5846 13887 c-48 -31 -164 -161 -172 -194 -4 -13 -10 -23 -14 -23 -5
0 -16 -24 -26 -52 -9 -29 -20 -55 -24 -58 -10 -7 -40 -142 -40 -179 0 -16 -5
-31 -12 -33 -15 -5 -17 -396 -2 -406 5 -4 17 -52 26 -106 10 -55 21 -102 26
-105 4 -3 16 -36 26 -73 10 -38 22 -68 26 -68 5 0 11 -13 15 -30 4 -16 12 -33
19 -37 7 -5 21 -25 31 -46 17 -37 88 -114 152 -165 37 -30 61 -35 133 -30 52
4 62 8 92 40 58 64 78 91 89 125 6 18 14 33 18 33 4 0 14 25 21 55 7 30 16 55
20 55 15 0 35 171 35 305 0 142 -22 395 -34 395 -4 0 -13 34 -20 75 -7 41 -16
75 -20 75 -4 0 -13 27 -20 61 -8 33 -19 66 -25 72 -7 7 -18 28 -26 47 -8 19
-20 41 -27 48 -7 7 -13 19 -13 25 0 7 -10 24 -23 39 -12 14 -33 41 -47 59 -76
97 -134 128 -184 96z"/>
<path d="M10572 13871 c-18 -17 -37 -31 -43 -31 -5 0 -9 -6 -9 -12 0 -7 -16
-31 -35 -53 -52 -58 -53 -61 -72 -102 -10 -21 -24 -44 -30 -51 -7 -7 -13 -20
-13 -27 0 -7 -6 -20 -13 -27 -8 -7 -22 -47 -32 -88 -10 -41 -22 -77 -26 -80
-9 -6 -39 -201 -39 -253 0 -19 -5 -37 -12 -39 -15 -5 -17 -396 -2 -406 6 -4
18 -46 28 -94 10 -49 22 -88 27 -88 5 0 14 -21 20 -46 7 -25 18 -48 25 -51 8
-3 14 -11 14 -19 0 -7 16 -30 35 -51 19 -21 35 -41 35 -44 0 -32 175 -37 208
-5 92 86 140 136 152 161 8 16 23 37 33 47 9 10 17 25 17 33 0 8 4 15 8 15 8
0 42 91 42 112 0 5 6 16 14 24 8 8 18 39 21 69 4 30 11 55 15 55 16 0 34 180
34 335 0 147 -17 313 -33 325 -3 3 -12 27 -19 55 -7 27 -17 52 -21 55 -4 3
-16 29 -26 58 -11 28 -22 52 -26 52 -4 0 -10 9 -14 20 -3 11 -39 54 -80 96
-61 63 -80 76 -112 81 -32 4 -43 0 -71 -26z"/>
<path d="M3320 13798 c-35 -5 -67 -12 -70 -17 -3 -4 -33 -14 -68 -21 -35 -7
-69 -19 -76 -25 -6 -7 -28 -18 -49 -26 -20 -7 -37 -16 -37 -19 0 -3 -19 -14
-42 -25 -24 -10 -47 -24 -51 -32 -4 -7 -14 -13 -22 -13 -19 0 -35 -32 -35 -68
0 -23 17 -46 82 -111 44 -45 93 -90 107 -99 14 -9 32 -25 39 -34 7 -10 20 -18
28 -18 8 0 17 -7 20 -15 4 -8 11 -15 18 -15 6 0 24 -11 40 -25 15 -13 43 -29
62 -35 19 -7 34 -15 34 -19 0 -4 18 -14 40 -21 22 -7 40 -16 40 -20 0 -8 94
-40 116 -40 8 0 14 -4 14 -8 0 -8 62 -26 135 -38 22 -4 42 -10 45 -14 8 -13
177 -30 290 -30 120 0 283 18 288 31 2 5 12 9 23 9 23 0 142 32 149 40 3 3 30
14 60 24 30 11 61 26 68 33 7 7 20 13 27 13 8 0 18 6 22 13 4 6 17 17 28 23
13 7 21 24 23 48 3 34 -2 43 -56 97 -33 32 -63 59 -66 59 -4 0 -22 16 -42 35
-19 19 -39 35 -44 35 -5 0 -15 8 -22 18 -15 19 -44 40 -70 48 -10 4 -18 10
-18 15 0 5 -18 16 -40 25 -22 9 -40 20 -40 24 0 4 -13 13 -30 19 -16 5 -30 14
-30 20 0 5 -25 18 -55 27 -30 10 -55 21 -55 25 0 3 -20 12 -45 19 -25 7 -45
16 -45 20 0 4 -37 15 -82 25 -46 10 -85 22 -88 26 -18 25 -380 37 -520 17z"/>
<path d="M12755 13797 c-38 -5 -72 -13 -75 -16 -3 -4 -40 -15 -82 -25 -43 -11
-78 -23 -78 -27 0 -4 -16 -10 -35 -13 -19 -4 -40 -12 -47 -19 -7 -7 -39 -21
-70 -31 -32 -11 -58 -23 -58 -28 0 -5 -13 -14 -29 -19 -16 -6 -32 -16 -35 -24
-2 -7 -18 -16 -35 -20 -17 -4 -34 -12 -38 -19 -5 -6 -21 -20 -38 -30 -16 -11
-38 -28 -49 -38 -11 -10 -23 -18 -27 -18 -7 0 -56 -44 -151 -136 -49 -46 -58
-61 -58 -89 0 -19 3 -35 8 -35 4 0 20 -11 36 -25 17 -14 40 -28 53 -31 13 -4
23 -10 23 -15 0 -5 25 -16 55 -24 30 -9 55 -20 55 -24 0 -4 37 -16 83 -26 45
-10 84 -22 87 -26 8 -12 179 -29 287 -29 120 0 303 19 303 31 0 5 9 9 20 9 29
0 154 32 160 40 3 4 31 15 63 24 31 9 57 20 57 25 0 4 18 14 40 21 22 7 40 16
40 20 0 4 18 13 41 20 23 8 43 19 46 26 2 7 18 18 34 24 16 7 29 16 29 20 0 4
10 12 23 17 28 14 57 37 119 93 26 25 61 56 77 69 16 14 36 40 46 58 10 18 22
33 27 33 4 0 8 7 8 15 0 8 -4 15 -9 15 -5 0 -13 9 -16 21 -4 11 -18 24 -31 29
-13 5 -24 13 -24 18 0 4 -20 16 -45 27 -25 11 -45 23 -45 27 0 3 -17 12 -37
19 -21 6 -43 17 -49 24 -7 7 -41 18 -76 25 -35 7 -65 17 -68 21 -18 26 -369
37 -515 16z"/>
<path d="M12170 12860 c0 -5 -25 -10 -56 -10 -69 0 -267 -29 -274 -40 -3 -4
-31 -13 -62 -20 -32 -7 -58 -16 -58 -20 0 -4 -27 -15 -60 -24 -33 -9 -60 -21
-60 -25 0 -4 -18 -14 -40 -21 -22 -7 -40 -16 -40 -20 0 -4 -18 -13 -40 -20
-23 -8 -44 -19 -48 -25 -4 -7 -25 -20 -47 -31 -22 -10 -46 -26 -53 -36 -7 -10
-19 -18 -26 -18 -8 0 -16 -7 -20 -15 -3 -8 -11 -15 -18 -15 -7 0 -28 -16 -47
-35 -29 -30 -33 -39 -27 -70 4 -21 15 -39 29 -46 12 -7 26 -18 30 -25 4 -8 14
-14 22 -14 8 0 18 -6 22 -13 4 -7 26 -21 48 -32 22 -10 42 -21 45 -24 10 -12
50 -31 65 -31 8 0 15 -4 15 -9 0 -5 24 -17 53 -27 28 -9 54 -20 57 -24 6 -9
144 -40 175 -40 13 0 25 -6 28 -12 5 -17 504 -19 515 -2 4 6 49 19 100 29 50
9 92 20 92 24 0 3 29 15 65 25 36 10 65 22 65 27 0 4 18 14 40 20 22 7 40 15
40 19 0 4 21 15 48 25 26 10 51 24 55 32 4 7 14 13 22 13 8 0 18 6 22 14 4 7
23 21 41 30 18 9 42 25 52 34 10 9 35 31 54 47 49 42 49 79 -2 122 -80 70 -97
83 -110 83 -7 0 -15 6 -18 14 -3 8 -19 19 -35 25 -16 5 -29 14 -29 19 0 5 -26
17 -57 28 -32 10 -63 24 -70 30 -7 7 -29 15 -50 19 -21 4 -40 10 -43 15 -7 12
-185 40 -252 40 -32 0 -58 4 -58 10 0 6 -22 10 -50 10 -27 0 -50 -4 -50 -10z"/>
<path d="M4110 12845 c-8 -2 -50 -9 -92 -16 -43 -6 -78 -15 -78 -19 0 -3 -22
-12 -50 -19 -27 -7 -50 -16 -50 -20 0 -4 -20 -13 -45 -20 -24 -7 -54 -21 -66
-32 -12 -10 -31 -21 -43 -25 -11 -4 -27 -15 -34 -25 -7 -11 -19 -19 -27 -19
-8 0 -18 -6 -22 -13 -4 -7 -21 -21 -38 -31 -76 -49 -85 -102 -28 -159 20 -20
41 -37 47 -37 6 0 17 -9 24 -20 7 -11 19 -20 27 -20 8 0 18 -6 22 -13 4 -6 22
-19 38 -27 17 -8 39 -23 49 -32 11 -10 25 -18 32 -18 7 0 19 -6 26 -13 7 -8
30 -20 51 -26 20 -7 37 -16 37 -19 0 -4 30 -16 68 -26 37 -11 69 -23 72 -27 3
-4 46 -16 95 -26 50 -10 92 -21 95 -25 13 -17 272 -28 403 -17 72 6 134 14
137 18 3 3 43 14 90 24 47 10 87 22 88 27 2 6 10 10 17 10 22 0 115 33 115 41
0 4 16 13 35 19 19 6 35 15 35 20 0 4 18 15 40 24 22 9 40 20 40 26 0 5 6 10
13 10 7 0 30 16 52 35 22 19 43 35 48 35 4 0 7 13 7 30 0 31 -29 66 -80 96
-16 10 -30 21 -30 25 0 4 -13 12 -30 19 -16 7 -30 16 -30 21 0 4 -17 16 -37
26 -21 9 -44 23 -51 30 -7 6 -28 17 -47 24 -19 7 -35 16 -35 20 0 4 -16 13
-35 19 -19 6 -35 15 -35 19 0 4 -29 16 -65 26 -36 11 -65 22 -65 26 0 3 -28
12 -62 19 -35 7 -66 17 -69 22 -12 18 -209 38 -374 37 -93 -1 -177 -3 -185 -4z"/>
<path d="M6773 12198 c-37 -17 -42 -150 -6 -186 7 -7 13 -19 13 -25 0 -15 46
-58 83 -76 15 -8 27 -18 27 -22 0 -4 25 -13 55 -20 30 -7 55 -15 55 -19 0 -4
32 -16 70 -26 39 -10 70 -21 70 -26 0 -4 20 -13 45 -19 25 -6 45 -15 45 -20 0
-4 27 -16 60 -25 33 -9 60 -20 60 -23 0 -4 26 -16 58 -26 31 -11 63 -25 70
-32 7 -7 28 -15 47 -19 19 -3 35 -10 35 -14 0 -5 24 -16 53 -26 28 -9 54 -20
57 -24 3 -3 21 -12 40 -20 19 -8 37 -16 40 -20 3 -3 30 -14 60 -24 30 -11 68
-33 84 -49 26 -25 28 -30 13 -38 -9 -5 -22 -15 -29 -23 -8 -7 -50 -22 -93 -32
-44 -10 -82 -21 -85 -25 -3 -4 -32 -12 -65 -20 -33 -7 -62 -16 -65 -20 -3 -4
-40 -14 -82 -24 -43 -9 -78 -20 -78 -24 0 -5 -38 -16 -85 -26 -47 -10 -85 -21
-85 -24 0 -4 -29 -13 -65 -20 -36 -7 -65 -16 -65 -20 0 -4 -40 -16 -90 -26
-49 -10 -90 -22 -90 -26 0 -4 -29 -12 -65 -19 -36 -7 -65 -16 -65 -20 0 -5
-36 -16 -80 -26 -44 -9 -80 -20 -80 -23 0 -4 -40 -16 -90 -26 -49 -10 -90 -22
-90 -26 0 -4 -29 -13 -65 -20 -36 -7 -65 -15 -65 -19 0 -6 -55 -21 -127 -35
-18 -4 -33 -10 -33 -15 0 -4 -29 -13 -65 -20 -36 -7 -65 -15 -65 -19 0 -4 -22
-15 -50 -25 -27 -10 -50 -22 -50 -26 0 -5 -9 -12 -21 -15 -24 -8 -159 -144
-159 -161 0 -6 -6 -14 -14 -17 -8 -3 -19 -22 -26 -41 -6 -20 -15 -36 -20 -36
-5 0 -14 -25 -21 -55 -7 -30 -16 -55 -21 -55 -4 0 -8 -14 -8 -31 0 -32 27 -69
38 -53 4 6 37 18 75 28 37 10 67 22 67 26 0 4 25 13 55 20 30 7 55 17 55 21 0
4 27 16 60 25 33 9 60 20 60 25 0 4 25 13 55 20 30 7 55 16 55 20 0 4 27 16
60 25 33 9 60 20 60 24 0 4 29 15 65 25 36 11 65 22 65 25 0 3 23 12 50 19 28
7 50 16 50 20 0 4 29 16 65 26 36 11 65 22 65 25 0 3 23 12 50 19 28 7 50 16
50 20 0 4 29 16 65 26 36 11 65 22 65 25 0 3 28 15 63 25 34 10 68 24 74 31 7
7 31 15 53 19 22 4 40 10 40 14 0 4 29 16 65 26 36 11 65 23 65 27 0 4 20 13
45 19 25 6 45 15 45 20 0 5 6 9 14 9 22 0 120 33 132 45 7 6 37 17 68 25 31 7
56 17 56 21 0 5 20 14 45 20 25 6 45 15 45 19 0 4 27 15 60 24 33 9 60 21 60
25 0 4 26 14 58 21 31 7 60 17 64 23 9 14 171 13 176 -1 2 -6 19 -16 38 -22
19 -6 34 -16 34 -21 0 -5 36 -9 80 -9 44 0 80 4 80 9 0 5 15 15 34 21 19 6 36
16 38 22 5 14 168 14 177 1 3 -6 30 -16 59 -23 28 -6 52 -16 52 -20 0 -5 32
-16 70 -26 39 -10 70 -22 70 -26 0 -4 20 -13 45 -19 25 -6 45 -15 45 -19 0 -4
27 -15 60 -24 33 -9 60 -20 60 -25 0 -4 32 -15 70 -25 39 -10 70 -22 70 -26 0
-4 20 -13 45 -19 25 -6 45 -15 45 -20 0 -4 25 -14 56 -21 31 -8 61 -19 68 -25
6 -6 32 -17 59 -24 26 -8 47 -17 47 -22 0 -4 25 -13 56 -20 31 -7 61 -18 68
-24 6 -6 39 -19 74 -29 34 -11 62 -22 62 -25 0 -4 21 -13 48 -20 26 -8 49 -17
52 -21 3 -3 33 -14 68 -25 34 -10 62 -21 62 -25 0 -3 23 -13 50 -20 28 -7 50
-17 50 -20 0 -4 29 -15 65 -25 36 -9 65 -20 65 -24 0 -4 29 -15 65 -26 36 -10
65 -21 65 -25 0 -3 23 -12 50 -19 28 -7 50 -16 50 -20 0 -4 29 -15 65 -26 36
-10 65 -21 65 -25 0 -3 23 -13 50 -20 28 -7 50 -16 50 -20 0 -3 29 -14 65 -25
36 -10 65 -22 65 -27 0 -17 39 -7 45 12 8 24 -4 110 -15 110 -4 0 -11 16 -14
35 -4 19 -12 40 -19 47 -7 8 -21 29 -31 48 -25 44 -28 48 -102 126 -34 35 -66
64 -72 64 -6 0 -15 6 -19 13 -4 8 -29 22 -55 32 -27 10 -48 21 -48 25 0 4 -29
14 -65 21 -36 7 -65 16 -65 20 0 3 -38 14 -85 24 -47 10 -85 21 -85 25 0 4
-28 13 -62 20 -35 6 -65 15 -68 19 -6 8 -138 41 -162 41 -10 0 -18 4 -18 10 0
5 -36 17 -80 26 -44 10 -80 21 -80 25 0 4 -29 12 -65 19 -36 7 -65 16 -65 20
0 4 -39 15 -87 25 -49 10 -90 21 -93 25 -7 9 -83 30 -109 30 -11 0 -21 4 -21
9 0 5 -35 17 -77 27 -43 10 -80 21 -83 25 -3 4 -41 15 -85 24 -44 10 -82 21
-85 25 -3 4 -32 13 -65 20 -33 7 -62 15 -65 19 -3 4 -40 15 -82 25 -43 11 -78
23 -78 28 0 4 -6 8 -14 8 -7 0 -19 6 -25 14 -15 18 2 56 24 56 8 0 15 4 15 9
0 4 21 16 48 26 26 10 49 21 52 25 3 3 24 12 48 20 23 7 42 16 42 19 0 3 28
15 63 26 34 11 68 25 75 32 7 7 20 13 27 13 7 0 20 6 27 13 7 6 39 21 71 31
31 11 57 22 57 26 0 3 29 14 65 25 36 10 65 22 65 26 0 5 20 14 45 20 25 6 45
15 45 19 0 4 30 15 68 25 37 10 69 21 72 25 3 3 26 12 53 20 26 7 47 16 47 20
0 4 14 13 31 20 34 15 79 58 79 77 0 6 5 13 11 15 17 6 31 89 24 141 -5 37
-12 50 -29 56 -21 9 -104 -11 -115 -26 -3 -5 -32 -17 -63 -28 -32 -11 -58 -23
-58 -27 0 -4 -19 -12 -42 -18 -22 -7 -47 -17 -54 -25 -7 -7 -33 -19 -58 -26
-26 -7 -46 -16 -46 -20 0 -3 -18 -12 -40 -19 -22 -7 -40 -17 -40 -21 0 -4 -25
-15 -55 -24 -30 -8 -55 -19 -55 -23 0 -5 -27 -16 -60 -26 -33 -10 -60 -22 -60
-27 0 -5 -20 -14 -45 -20 -25 -6 -45 -15 -45 -19 0 -5 -25 -16 -55 -25 -30 -8
-55 -19 -55 -23 0 -5 -17 -14 -37 -21 -21 -8 -40 -17 -43 -20 -6 -8 -107 -41
-125 -41 -7 0 -15 -5 -17 -11 -4 -13 -168 -15 -177 -2 -10 14 -104 43 -141 43
-37 0 -131 -29 -141 -43 -8 -11 -170 -11 -178 0 -3 5 -35 18 -71 28 -36 11
-71 25 -77 31 -7 7 -26 15 -43 19 -16 4 -30 11 -30 15 0 5 -25 17 -55 26 -30
10 -55 21 -55 25 0 3 -20 12 -45 19 -25 7 -45 16 -45 20 0 4 -25 15 -55 25
-30 9 -55 20 -55 24 0 4 -26 15 -57 26 -32 11 -60 22 -63 25 -3 3 -21 12 -40
20 -19 8 -37 17 -40 20 -3 4 -29 15 -57 24 -29 10 -53 21 -53 26 0 4 -20 13
-45 19 -25 6 -45 15 -45 20 0 4 -26 16 -57 27 -32 10 -61 23 -64 27 -13 17
-94 34 -116 25z"/>
<path d="M5245 12063 c-88 -11 -165 -26 -165 -32 0 -4 -27 -13 -60 -19 -33 -7
-60 -16 -60 -20 0 -4 -25 -16 -55 -27 -30 -10 -55 -21 -55 -24 0 -3 -20 -15
-45 -26 -24 -10 -47 -25 -49 -32 -3 -7 -11 -13 -17 -13 -13 0 -24 -10 -110
-96 -83 -83 -89 -91 -89 -128 0 -24 5 -36 18 -40 9 -3 30 -17 46 -31 16 -14
35 -25 42 -25 7 0 17 -6 21 -13 4 -7 24 -19 43 -27 19 -7 40 -18 45 -24 6 -7
36 -20 68 -31 31 -10 57 -22 57 -26 0 -4 25 -13 55 -20 30 -7 55 -15 55 -20 0
-4 44 -15 98 -25 53 -10 100 -23 104 -28 10 -15 466 -15 476 0 4 6 30 14 57
18 69 9 155 29 155 37 0 3 25 12 55 19 30 7 55 16 55 20 0 4 21 15 48 25 26
10 49 21 52 25 3 4 20 15 39 25 19 9 43 26 54 36 12 10 24 19 29 19 10 0 25
13 101 84 47 44 57 60 57 87 0 36 -39 78 -93 100 -18 7 -36 19 -40 26 -4 7
-14 13 -22 13 -7 0 -20 6 -27 13 -7 7 -34 22 -61 32 -26 10 -47 21 -47 24 0 4
-31 15 -70 25 -38 10 -70 22 -70 26 0 4 -28 13 -62 20 -35 7 -65 17 -68 21
-17 25 -435 48 -565 32z"/>
<path d="M10910 12064 c-14 -2 -62 -9 -107 -15 -46 -6 -83 -15 -83 -20 0 -5
-9 -9 -20 -9 -30 0 -110 -23 -110 -32 0 -4 -6 -8 -14 -8 -19 0 -120 -32 -126
-40 -3 -4 -27 -15 -55 -26 -27 -10 -56 -24 -63 -31 -7 -7 -20 -13 -27 -13 -8
0 -18 -6 -22 -14 -4 -7 -25 -21 -47 -31 -52 -25 -89 -64 -89 -95 0 -25 90
-130 112 -130 6 0 16 -9 23 -20 7 -11 18 -20 25 -20 6 0 18 -9 25 -19 8 -11
26 -23 40 -26 14 -4 34 -14 45 -24 10 -9 42 -26 71 -36 28 -10 52 -22 52 -26
0 -3 21 -12 48 -19 26 -8 49 -17 52 -21 6 -9 153 -39 190 -39 16 0 30 -6 33
-12 3 -10 57 -13 227 -13 170 0 224 3 228 13 2 6 13 12 25 12 37 0 187 32 187
40 0 4 27 13 60 20 33 7 60 16 60 20 0 4 21 15 48 25 26 10 49 21 52 25 3 3
24 14 48 23 42 17 54 24 91 58 10 9 32 22 49 30 17 7 33 22 36 34 10 35 7 64
-7 72 -8 4 -22 21 -32 36 -24 37 -71 87 -82 87 -5 0 -24 14 -43 30 -54 47 -56
49 -97 67 -21 10 -43 23 -50 29 -7 6 -32 18 -57 25 -26 7 -46 17 -46 20 0 4
-26 13 -57 20 -32 7 -61 17 -64 22 -17 24 -411 47 -529 31z"/>
</g>
</svg>
